ffmpeg version 3.4.8-0ubuntu0.2 Copyright (c) 2000-2020 the FFmpeg developers
  built with gcc 7 (Ubuntu 7.5.0-3ubuntu1~18.04)
  configuration: --prefix=/usr --extra-version=0ubuntu0.2 --toolchain=hardened --libdir=/usr/lib/x86_64-linux-gnu --incdir=/usr/include/x86_64-linux-gnu --enable-gpl --disable-stripping --enable-avresample --enable-avisynth --enable-gnutls --enable-ladspa --enable-libass --enable-libbluray --enable-libbs2b --enable-libcaca --enable-libcdio --enable-libflite --enable-libfontconfig --enable-libfreetype --enable-libfribidi --enable-libgme --enable-libgsm --enable-libmp3lame --enable-libmysofa --enable-libopenjpeg --enable-libopenmpt --enable-libopus --enable-libpulse --enable-librubberband --enable-librsvg --enable-libshine --enable-libsnappy --enable-libsoxr --enable-libspeex --enable-libssh --enable-libtheora --enable-libtwolame --enable-libvorbis --enable-libvpx --enable-libwavpack --enable-libwebp --enable-libx265 --enable-libxml2 --enable-libxvid --enable-libzmq --enable-libzvbi --enable-omx --enable-openal --enable-opengl --enable-sdl2 --enable-libdc1394 --enable-libdrm --enable-libiec61883 --enable-chromaprint --enable-frei0r --enable-libopencv --enable-libx264 --enable-shared
  libavutil      55. 78.100 / 55. 78.100
  libavcodec     57.107.100 / 57.107.100
  libavformat    57. 83.100 / 57. 83.100
  libavdevice    57. 10.100 / 57. 10.100
  libavfilter     6.107.100 /  6.107.100
  libavresample   3.  7.  0 /  3.  7.  0
  libswscale      4.  8.100 /  4.  8.100
  libswresample   2.  9.100 /  2.  9.100
  libpostproc    54.  7.100 / 54.  7.100
[rawvideo @ 0x55f3b0306a20] Estimating duration from bitrate, this may be inaccurate
Input #0, rawvideo, from '../../SVC-Encoder-20220109T061506Z-001/SVC-Encoder/Dataset/RollerCoaster/ERP_8x8/tile_yuv/Tile_44_480x240.yuv':
  Duration: 00:00:10.00, start: 0.000000, bitrate: 41472 kb/s
    Stream #0:0: Video: rawvideo (I420 / 0x30323449), yuv420p, 480x240, 41472 kb/s, 30 tbr, 30 tbn, 30 tbc
Stream mapping:
  Stream #0:0 -> #0:0 (rawvideo (native) -> h264 (libx264))
Press [q] to stop, [?] for help
[libx264 @ 0x55f3b0313c60] using cpu capabilities: MMX2 SSE2Fast LZCNT SSSE3 SSE4.2 AVX
[libx264 @ 0x55f3b0313c60] profile High, level 2.1
Output #0, rawvideo, to 'RollerCoaster_Tile_44_480x240_x264_QP_24.h264':
  Metadata:
    encoder         : Lavf57.83.100
    Stream #0:0: Video: h264 (libx264), yuv420p, 480x240, q=-1--1, 30 fps, 30 tbn, 30 tbc
    Metadata:
      encoder         : Lavc57.107.100 libx264
    Side data:
      cpb: bitrate max/min/avg: 0/0/0 buffer size: 0 vbv_delay: -1
frame=  106 fps=0.0 q=30.0 PSNR=Y:nan U:nan V:nan *:nan size=     142kB time=00:00:02.10 bitrate= 552.4kbits/s speed=4.19x    frame=  195 fps=194 q=30.0 PSNR=Y:nan U:nan V:nan *:nan size=     256kB time=00:00:05.06 bitrate= 413.9kbits/s speed=5.03x    frame=  290 fps=192 q=30.0 PSNR=Y:nan U:nan V:nan *:nan size=     512kB time=00:00:08.23 bitrate= 509.4kbits/s speed=5.46x    frame=  300 fps=168 q=30.0 LPSNR=Y:inf U:inf V:inf *:inf size=     638kB time=00:00:09.93 bitrate= 526.5kbits/s speed=5.56x    
video:638kB audio:0kB subtitle:0kB other streams:0kB global headers:0kB muxing overhead: 0.000000%
[libx264 @ 0x55f3b0313c60] frame I:2     Avg QP:23.80  size: 13781  PSNR Mean Y:43.39 U:45.47 V:48.36 Avg:44.24 Global:44.08
[libx264 @ 0x55f3b0313c60] frame P:79    Avg QP:25.48  size:  4688  PSNR Mean Y:40.39 U:44.21 V:47.01 Avg:41.52 Global:41.46
[libx264 @ 0x55f3b0313c60] frame B:219   Avg QP:29.47  size:  1169  PSNR Mean Y:40.01 U:44.45 V:47.13 Avg:41.21 Global:41.13
[libx264 @ 0x55f3b0313c60] consecutive B-frames:  1.0%  2.7%  7.0% 89.3%
[libx264 @ 0x55f3b0313c60] mb I  I16..4:  3.4% 51.7% 44.9%
[libx264 @ 0x55f3b0313c60] mb P  I16..4:  1.0%  6.7%  1.6%  P16..4: 38.4% 33.3% 12.0%  0.0%  0.0%    skip: 7.0%
[libx264 @ 0x55f3b0313c60] mb B  I16..4:  0.1%  0.4%  0.1%  B16..8: 48.1% 16.2%  2.0%  direct: 1.3%  skip:31.8%  L0:41.5% L1:45.2% BI:13.3%
[libx264 @ 0x55f3b0313c60] 8x8 transform intra:68.0% inter:70.6%
[libx264 @ 0x55f3b0313c60] coded y,uvDC,uvAC intra: 78.4% 87.3% 48.7% inter: 20.6% 20.1% 0.5%
[libx264 @ 0x55f3b0313c60] i16 v,h,dc,p: 27% 17% 27% 29%
[libx264 @ 0x55f3b0313c60] i8 v,h,dc,ddl,ddr,vr,hd,vl,hu:  5% 28% 12%  4%  6%  6% 14%  3% 23%
[libx264 @ 0x55f3b0313c60] i4 v,h,dc,ddl,ddr,vr,hd,vl,hu:  8% 25% 15%  3% 13%  9% 12%  3% 12%
[libx264 @ 0x55f3b0313c60] i8c dc,h,v,p: 38% 40%  6% 16%
[libx264 @ 0x55f3b0313c60] Weighted P-Frames: Y:1.3% UV:0.0%
[libx264 @ 0x55f3b0313c60] ref P L0: 58.6% 17.0% 17.1%  7.2%  0.1%
[libx264 @ 0x55f3b0313c60] ref B L0: 90.3%  8.2%  1.5%
[libx264 @ 0x55f3b0313c60] ref B L1: 96.9%  3.1%
[libx264 @ 0x55f3b0313c60] PSNR Mean Y:40.137 U:44.395 V:47.108 Avg:41.311 Global:41.233 kb/s:523.03
